<svg id="bc8a3d36-d9f0-4f2a-8f5a-58dd8c6d180b" data-name="Layer 1" xmlns="http://www.w3.org/2000/svg" viewBox="0 0 29.78 38.85">
  <defs>
    <style>
      .ed925a45-cfe0-466a-918b-deca8d400ab6 {
        fill: #ae9142;
      }
    </style>
  </defs>
  <g>
    <path class="ed925a45-cfe0-466a-918b-deca8d400ab6" d="M12.6,24.3a.64.64,0,0,0,.92,0h0l3.66-3.66a.65.65,0,0,0,0-.91.63.63,0,0,0-.91,0L12.6,23.39a.65.65,0,0,0,0,.91Z"/>
    <path class="ed925a45-cfe0-466a-918b-deca8d400ab6" d="M12.09,20.18a1,1,0,1,1,1,1A1,1,0,0,1,12.09,20.18Z"/>
    <path class="ed925a45-cfe0-466a-918b-deca8d400ab6" d="M15.75,23.85a1,1,0,1,1,1,1,1,1,0,0,1-1-1Z"/>
    <path class="ed925a45-cfe0-466a-918b-deca8d400ab6" d="M28.49,37.15l-1.66-.82a.64.64,0,0,0-.57,0l-1.66.82V10.36h3.89ZM23.31,9.07H19.42V7.12A7.06,7.06,0,0,0,16.5,1.39a5.8,5.8,0,0,1,6.72,4.69,6,6,0,0,1,.09,1ZM18.1,18.81a4.53,4.53,0,1,1-6.41,6.41h0a4.53,4.53,0,0,1,6.41-6.41Zm5.21,18.74H3.24A1.94,1.94,0,0,1,1.3,35.61h0V10.36H5.18V13H4.53a.65.65,0,0,0,0,1.3H7.12a.65.65,0,0,0,0-1.3H6.47V10.36h7.77v5.87a5.85,5.85,0,1,0,1.3,0V10.36h2.59V13h-.65a.65.65,0,1,0,0,1.3h2.59a.65.65,0,0,0,0-1.3h-.65V10.36h3.89ZM6.47,7.12A5.8,5.8,0,0,1,12.24,1.3a4.52,4.52,0,0,1,1,.09,7.09,7.09,0,0,0-2.92,5.73v2H6.47Zm8.42-5.21a5.82,5.82,0,0,1,3.24,5.21v2H11.65V7.12a5.84,5.84,0,0,1,3.24-5.21ZM24.6,9.07V7.12A7.09,7.09,0,0,0,14.89.5a7.11,7.11,0,0,0-9.22,4,7.38,7.38,0,0,0-.49,2.62v2H.65A.64.64,0,0,0,0,9.71H0v25.9a3.24,3.24,0,0,0,3.24,3.24H24a.48.48,0,0,0,.2,0h.06l2.3-1.15,2.3,1.15a.65.65,0,0,0,.87-.29.59.59,0,0,0,.07-.29V9.71a.64.64,0,0,0-.64-.64H24.6Z"/>
  </g>
</svg>
