<svg id="f7f41fcd-d3c9-4a3e-b287-de48b69289ee" data-name="Layer 1" xmlns="http://www.w3.org/2000/svg" viewBox="0 0 38.93 38.85">
  <defs>
    <style>
      .b2cee7b6-b1e4-49cd-98d4-42201c7f6da2 {
        fill: #ae9142;
      }
    </style>
  </defs>
  <g>
    <path class="b2cee7b6-b1e4-49cd-98d4-42201c7f6da2" d="M32.5,30.05a.57.57,0,0,0-.17.53l1.41,6.54-6-3.24a.45.45,0,0,0-.3-.06.52.52,0,0,0-.29.06l-6,3.24,1.53-6.48a.47.47,0,0,0-.18-.53l-4.59-4.48,6.3-.95a.65.65,0,0,0,.47-.35l2.83-6,2.83,6a.59.59,0,0,0,.47.35l6.31.95ZM12.64,12.43a1.89,1.89,0,0,1-1.76,0,7.55,7.55,0,0,0,2.29-3.07A1.93,1.93,0,0,1,12.64,12.43ZM10.88,9a2.44,2.44,0,0,1,1.29-.18,6.19,6.19,0,0,1-2.12,2.83A1.93,1.93,0,0,1,10.83,9Zm4.47,25.63a1.17,1.17,0,0,1-1,.06,1.34,1.34,0,0,1-.76-.64L4.1,15.26l.71-1.89a6.83,6.83,0,0,0,5-.29,3,3,0,0,0,3.41.35,3.11,3.11,0,0,0-2.8-5.55h0A3.1,3.1,0,0,0,9,12.07v.06a6.05,6.05,0,0,1-3.83.18l3-8.07A.38.38,0,0,1,8.58,4L20,7.18l6,11.67-2.24,4.72-7.19,1.06a.57.57,0,0,0-.47.41.53.53,0,0,0,.18.59l5.18,5.07-.17.88ZM1.86,9.42A5.75,5.75,0,0,1,4.33,1.76a5.49,5.49,0,0,1,4.31-.35,5.47,5.47,0,0,1,2.88,2.12L9,2.82a1.49,1.49,0,0,0-1.83,1L4.1,11.84A5.27,5.27,0,0,1,1.86,9.42ZM38.87,25a.56.56,0,0,0-.48-.41l-7.13-1.06L28,16.73a.55.55,0,0,0-.53-.35.56.56,0,0,0-.53.35l-.35.77L21.07,6.65a1.13,1.13,0,0,0-.77-.59L13.11,4A.41.41,0,0,1,13,3.77,6.8,6.8,0,0,0,9,.35,6.75,6.75,0,0,0,3.75.76,6.9,6.9,0,0,0,.74,10a6.48,6.48,0,0,0,3,3L3,14.84a1.2,1.2,0,0,0,.06,1l9.49,18.68A2.32,2.32,0,0,0,14,35.76a2.49,2.49,0,0,0,1.94-.17l5-2.54-1.12,5.07a.57.57,0,0,0,.24.59.63.63,0,0,0,.65.06l6.83-3.71,6.84,3.71a.54.54,0,0,0,.65-.06.56.56,0,0,0,.23-.59l-1.65-7.48,5.19-5.07A.45.45,0,0,0,38.87,25Z"/>
    <path class="b2cee7b6-b1e4-49cd-98d4-42201c7f6da2" d="M23.37,18.32a.56.56,0,0,0-.77-.24l-11,5.6a.55.55,0,0,0-.23.77.54.54,0,0,0,.76.23l11-5.59A.52.52,0,0,0,23.37,18.32Z"/>
    <path class="b2cee7b6-b1e4-49cd-98d4-42201c7f6da2" d="M21.31,14.43a.55.55,0,0,0-.77-.23l-11,5.59a.57.57,0,0,0,.53,1l11-5.6a.55.55,0,0,0,.24-.77Z"/>
    <path class="b2cee7b6-b1e4-49cd-98d4-42201c7f6da2" d="M15.83,26.22a.59.59,0,0,0-.77-.3l-2,1a.55.55,0,0,0-.23.77.56.56,0,0,0,.77.24l1.94-1A.47.47,0,0,0,15.83,26.22Z"/>
    <path class="b2cee7b6-b1e4-49cd-98d4-42201c7f6da2" d="M18.65,28.81a.53.53,0,0,0-.76-.24l-3.13,1.54a.54.54,0,0,0-.23.76.53.53,0,0,0,.77.24l3.06-1.59a.54.54,0,0,0,.29-.71Z"/>
  </g>
</svg>
