<svg id="e109e3f3-2266-4c66-9940-1d43b8539276" data-name="Layer 1" xmlns="http://www.w3.org/2000/svg" viewBox="0 0 31.08 38.85">
  <defs>
    <style>
      .b9dde361-3bea-4d9a-8c6e-204c08dd0ae1 {
        fill: #ae9142;
      }
    </style>
  </defs>
  <g>
    <path class="b9dde361-3bea-4d9a-8c6e-204c08dd0ae1" d="M29.78,36.91a.66.66,0,0,1-.64.65H20.07a.67.67,0,0,1-.65-.65V20.07a.66.66,0,0,1,.65-.64,1.05,1.05,0,0,1,1,.8A2.36,2.36,0,0,0,23.39,22H25.9a2.37,2.37,0,0,0,2.29-1.79,1,1,0,0,1,1-.8.65.65,0,0,1,.61.64V36.91ZM18.13,20.07V35.61H16.75a2.59,2.59,0,0,0-5,0H9a2.59,2.59,0,0,0-5,0h-2A.64.64,0,0,1,1.3,35V13a.64.64,0,0,1,.64-.65H7.12v2.59h1.3V12.3H12.3v2.59h1.3V12.3h5.18a.66.66,0,0,1,.65.65v5.29a2,2,0,0,0-1.3,1.83ZM14.24,37.56A1.31,1.31,0,0,1,13,36.26a1.3,1.3,0,1,1,1.29,1.3Zm-7.77,0a1.31,1.31,0,0,1-1.29-1.3,1.3,1.3,0,1,1,1.29,1.3Zm2-34.32a1.94,1.94,0,0,1,3.88,0V11H8.42ZM27.11,19.43a2.6,2.6,0,0,0-.18.49,1.06,1.06,0,0,1-1,.8H23.39a1.06,1.06,0,0,1-1-.8,2.05,2.05,0,0,0-.18-.49Zm2.11-1.3h-8.5V13A1.94,1.94,0,0,0,18.78,11H13.6V3.24a3.24,3.24,0,0,0-6.48,0V11H1.94A1.94,1.94,0,0,0,0,13V35a2,2,0,0,0,1.94,1.94H4a2.59,2.59,0,0,0,5,0h2.76a2.59,2.59,0,0,0,5,0h1.38a1.94,1.94,0,0,0,1.94,1.94h9.07a1.94,1.94,0,0,0,1.94-1.94V20.07A2,2,0,0,0,29.22,18.13Z"/>
    <path class="b9dde361-3bea-4d9a-8c6e-204c08dd0ae1" d="M23.31,16.84H24.6A2.58,2.58,0,0,0,22,14.25h0v1.29A1.3,1.3,0,0,1,23.31,16.84Z"/>
    <path class="b9dde361-3bea-4d9a-8c6e-204c08dd0ae1" d="M25.9,16.84h1.29A5.18,5.18,0,0,0,22,11.66V13A3.89,3.89,0,0,1,25.9,16.84Z"/>
    <path class="b9dde361-3bea-4d9a-8c6e-204c08dd0ae1" d="M28.49,16.84h1.29A7.77,7.77,0,0,0,22,9.07v1.29a6.48,6.48,0,0,1,6.48,6.47Z"/>
    <g>
      <path class="b9dde361-3bea-4d9a-8c6e-204c08dd0ae1" d="M4.4,32.69V16.57H5.86V32.69Z"/>
      <path class="b9dde361-3bea-4d9a-8c6e-204c08dd0ae1" d="M8.8,32.69V16.57h1.46V32.69Z"/>
      <path class="b9dde361-3bea-4d9a-8c6e-204c08dd0ae1" d="M11.73,32.69V16.57h1.46V32.69Z"/>
      <path class="b9dde361-3bea-4d9a-8c6e-204c08dd0ae1" d="M16.13,32.69V16.57h1.46V32.69Z"/>
    </g>
  </g>
</svg>
